# Blender v3.0.0 OBJ File: 'quarto.blend'
# www.blender.org
mtllib black_piece.mtl
o btsh_Cube.011
v 0.075000 0.000000 -0.075000
v 0.000000 0.260000 -0.045000
v 0.008779 0.260000 -0.044135
v 0.075000 0.000000 0.075000
v -0.075000 0.000000 -0.075000
v 0.017221 0.260000 -0.041575
v -0.075000 0.000000 0.075000
v 0.025001 0.260000 -0.037416
v 0.075000 0.150000 -0.075000
v 0.031820 0.260000 -0.031820
v -0.075000 0.150000 0.075000
v 0.037416 0.260000 -0.025001
v 0.075000 0.150000 0.075000
v 0.041575 0.260000 -0.017221
v -0.075000 0.150000 -0.075000
v 0.044135 0.260000 -0.008779
v 0.045000 0.260000 0.000000
v 0.075000 0.130000 -0.075000
v 0.075000 0.130000 0.075000
v 0.044135 0.260000 0.008779
v -0.075000 0.130000 -0.075000
v 0.041575 0.260000 0.017221
v -0.075000 0.130000 0.075000
v 0.037416 0.260000 0.025001
v 0.031820 0.260000 0.031820
v 0.067500 0.149622 -0.067500
v -0.067500 0.149622 0.067500
v 0.025001 0.260000 0.037416
v 0.017221 0.260000 0.041575
v 0.067500 0.149622 0.067500
v 0.008779 0.260000 0.044135
v -0.067500 0.149622 -0.067500
v -0.000000 0.260000 0.045000
v 0.067500 0.129622 -0.067500
v -0.008779 0.260000 0.044135
v 0.067500 0.129622 0.067500
v -0.017221 0.260000 0.041575
v -0.067500 0.129622 -0.067500
v -0.067500 0.129622 0.067500
v -0.025001 0.260000 0.037416
v 0.075000 0.282578 -0.075000
v -0.031820 0.260000 0.031820
v 0.063385 0.300000 -0.063385
v -0.037416 0.260000 0.025001
v -0.041575 0.260000 0.017221
v 0.071598 0.294897 -0.071598
v 0.075000 0.282578 0.075000
v -0.044135 0.260000 0.008779
v 0.063385 0.300000 0.063385
v -0.045000 0.260000 -0.000000
v 0.071598 0.294897 0.071598
v -0.044135 0.260000 -0.008779
v -0.041575 0.260000 -0.017221
v -0.063385 0.300000 -0.063385
v -0.037416 0.260000 -0.025001
v -0.075000 0.282578 -0.075000
v -0.031820 0.260000 -0.031820
v -0.071598 0.294897 -0.071598
v -0.025001 0.260000 -0.037416
v -0.063385 0.300000 0.063385
v -0.075000 0.282578 0.075000
v -0.017221 0.260000 -0.041575
v -0.008779 0.260000 -0.044135
v -0.071598 0.294897 0.071598
v -0.010176 0.300000 0.051156
v -0.008779 0.292876 0.044135
v -0.009188 0.297913 0.046192
v -0.019960 0.300000 0.048188
v -0.017221 0.292876 0.041575
v -0.018023 0.297913 0.043512
v -0.045000 0.292876 -0.000000
v -0.052159 0.300000 -0.000000
v -0.047097 0.297913 -0.000000
v -0.051156 0.300000 0.010176
v -0.044135 0.292876 0.008779
v -0.046192 0.297913 0.009188
v -0.028978 0.300000 0.043368
v -0.025001 0.292876 0.037416
v -0.026166 0.297913 0.039159
v -0.051156 0.300000 -0.010176
v -0.044135 0.292876 -0.008779
v -0.046192 0.297913 -0.009188
v -0.043368 0.300000 0.028978
v -0.037416 0.292876 0.025001
v -0.039159 0.297913 0.026166
v -0.043368 0.300000 -0.028978
v -0.037416 0.292876 -0.025001
v -0.039159 0.297913 -0.026166
v -0.048188 0.300000 0.019960
v -0.041575 0.292876 0.017221
v -0.043512 0.297913 0.018023
v -0.048188 0.300000 -0.019960
v -0.041575 0.292876 -0.017221
v -0.043512 0.297913 -0.018023
v -0.036882 0.300000 -0.036882
v -0.031820 0.292876 -0.031820
v -0.033302 0.297913 -0.033302
v -0.028978 0.300000 -0.043368
v -0.025001 0.292876 -0.037416
v -0.026166 0.297913 -0.039159
v -0.010176 0.300000 -0.051156
v -0.008779 0.292876 -0.044135
v -0.009188 0.297913 -0.046192
v -0.019960 0.300000 -0.048188
v -0.017221 0.292876 -0.041575
v -0.018023 0.297913 -0.043512
v 0.010176 0.300000 -0.051156
v 0.008779 0.292876 -0.044135
v 0.009188 0.297913 -0.046192
v 0.031820 0.292876 -0.031820
v 0.036882 0.300000 -0.036882
v 0.033302 0.297913 -0.033302
v 0.028978 0.300000 -0.043368
v 0.025001 0.292876 -0.037416
v 0.026166 0.297913 -0.039159
v 0.017221 0.292876 -0.041575
v 0.019960 0.300000 -0.048188
v 0.018023 0.297913 -0.043512
v -0.036882 0.300000 0.036882
v -0.031820 0.292876 0.031820
v -0.033302 0.297913 0.033302
v 0.000000 0.292876 -0.045000
v 0.000000 0.300000 -0.052159
v 0.000000 0.297913 -0.047097
v -0.000000 0.300000 0.052159
v -0.000000 0.292876 0.045000
v -0.000000 0.297913 0.047097
v 0.028978 0.300000 0.043368
v 0.025001 0.292876 0.037416
v 0.026166 0.297913 0.039159
v 0.019960 0.300000 0.048188
v 0.017221 0.292876 0.041575
v 0.018023 0.297913 0.043512
v 0.010176 0.300000 0.051156
v 0.008779 0.292876 0.044135
v 0.009188 0.297913 0.046192
v 0.037416 0.292876 0.025001
v 0.043368 0.300000 0.028978
v 0.039159 0.297913 0.026166
v 0.043368 0.300000 -0.028978
v 0.037416 0.292876 -0.025001
v 0.039159 0.297913 -0.026166
v 0.052159 0.300000 0.000000
v 0.045000 0.292876 0.000000
v 0.047097 0.297913 0.000000
v 0.048188 0.300000 0.019960
v 0.041575 0.292876 0.017221
v 0.043512 0.297913 0.018023
v 0.051156 0.300000 0.010176
v 0.044135 0.292876 0.008779
v 0.046192 0.297913 0.009188
v 0.051156 0.300000 -0.010176
v 0.044135 0.292876 -0.008779
v 0.046192 0.297913 -0.009188
v 0.031820 0.292876 0.031820
v 0.036882 0.300000 0.036882
v 0.033302 0.297913 0.033302
v 0.048188 0.300000 -0.019960
v 0.041575 0.292876 -0.017221
v 0.043512 0.297913 -0.018023
v 0.063385 0.300000 0.000000
v 0.000000 0.300000 -0.063385
v 0.000000 0.300000 0.063385
v -0.063385 0.300000 0.000000
v 0.000000 0.260000 -0.000000
vt 0.535956 0.036398
vt 0.535956 0.273201
vt 0.267978 0.273201
vt 0.267978 0.036398
vt 0.000000 0.554260
vt 0.000000 0.317456
vt 0.267978 0.317456
vt 0.267978 0.554260
vt 0.535606 0.295329
vt 0.803584 0.295329
vt 0.803584 0.563307
vt 0.535606 0.563307
vt 0.267978 0.554547
vt 0.267978 0.317750
vt 0.535606 0.317456
vt 0.535606 0.554254
vt 0.535606 0.554929
vt 0.267978 0.555222
vt 0.841131 0.563307
vt 0.841131 0.295329
vt 0.841806 0.295329
vt 0.841806 0.563307
vt 0.267978 0.035723
vt 0.535956 0.035723
vt 0.842480 0.295330
vt 0.842480 0.562958
vt 0.841806 0.562957
vt 0.841806 0.295329
vt 0.767806 0.563307
vt 1.000000 0.563561
vt 1.000000 0.831189
vt 0.767806 0.830935
vt 0.500178 0.858922
vt 0.267978 0.858922
vt 0.267978 0.590944
vt 0.500178 0.590944
vt 0.232200 0.858635
vt 0.000000 0.858635
vt 0.000000 0.590658
vt 0.232200 0.590658
vt 0.767806 0.831285
vt 0.535606 0.831285
vt 0.535606 0.563307
vt 0.767806 0.563307
vt 0.535956 0.000000
vt 0.267978 0.000000
vt 0.000000 0.035723
vt 0.000000 0.000000
vt 0.000000 0.590658
vt 0.000000 0.554935
vt 0.267978 0.554935
vt 0.267978 0.590658
vt 0.267978 0.590944
vt 0.535606 0.590651
vt 0.000000 0.036398
vt 0.839782 0.563307
vt 0.839782 0.295329
vt 0.840457 0.295329
vt 0.840457 0.563307
vt 0.840457 0.563307
vt 0.840457 0.295329
vt 0.841131 0.295329
vt 0.841131 0.563307
vt 0.663867 0.241150
vt 0.791778 0.255823
vt 0.535956 0.255823
vt 0.273737 0.295609
vt 0.529226 0.295329
vt 0.550628 0.127911
vt 0.535956 0.000000
vt 0.261900 0.295329
vt 0.006078 0.295329
vt 0.000000 0.273201
vt 0.777105 0.127911
vt 0.791778 0.000000
vt 0.006078 0.295329
vt 0.261900 0.295329
vt 0.663867 0.014673
vt 0.529878 0.295329
vt 0.274055 0.295329
vt 0.777105 0.241150
vt 0.741345 0.179681
vt 0.749956 0.163571
vt 0.572475 0.109732
vt 0.577778 0.092252
vt 0.361873 0.396583
vt 0.376054 0.369859
vt 0.503874 0.456268
vt 0.612098 0.050433
vt 0.597977 0.062021
vt 0.550628 0.014673
vt 0.628208 0.041822
vt 0.777105 0.014673
vt 0.699526 0.041822
vt 0.645688 0.036519
vt 0.663867 0.034729
vt 0.749956 0.092252
vt 0.757049 0.127911
vt 0.755259 0.146090
vt 0.699526 0.214001
vt 0.550628 0.241150
vt 0.628207 0.214001
vt 0.663867 0.221094
vt 0.645688 0.219303
vt 0.682046 0.036519
vt 0.597977 0.193801
vt 0.612098 0.205390
vt 0.715636 0.050433
vt 0.729757 0.062021
vt 0.682046 0.219303
vt 0.741345 0.076142
vt 0.715636 0.205390
vt 0.755259 0.109732
vt 0.729757 0.193801
vt 0.586389 0.179681
vt 0.577778 0.163571
vt 0.572475 0.146090
vt 0.570685 0.127911
vt 0.586389 0.076142
vt 0.395213 0.346404
vt 0.654831 0.426914
vt 0.657401 0.456974
vt 0.473441 0.605777
vt 0.444879 0.597028
vt 0.353199 0.425527
vt 0.632511 0.371040
vt 0.646435 0.397893
vt 0.654072 0.486912
vt 0.613578 0.347411
vt 0.350341 0.455563
vt 0.590360 0.327941
vt 0.353384 0.485532
vt 0.587996 0.583670
vt 0.561519 0.597562
vt 0.563752 0.313404
vt 0.395407 0.563898
vt 0.376377 0.540742
vt 0.534792 0.304384
vt 0.362183 0.514288
vt 0.644999 0.515585
vt 0.418536 0.582895
vt 0.611304 0.564887
vt 0.504616 0.301242
vt 0.474411 0.304105
vt 0.630553 0.541906
vt 0.503145 0.608822
vt 0.445366 0.312858
vt 0.418618 0.327148
vt 0.532876 0.606049
vt 0.169239 0.598408
vt 0.152898 0.648736
vt 0.279999 0.732466
vt 0.285385 0.674406
vt 0.773923 0.091820
vt 0.796989 0.033674
vt 0.525679 0.216358
vt 0.568898 0.233863
vt 0.692747 0.509383
vt 0.799269 0.440065
vt 0.791765 0.383166
vt 0.682208 0.454581
vt 0.182208 0.545419
vt 0.291766 0.616834
vt 0.631846 0.304936
vt 0.775674 0.209132
vt 0.772916 0.150510
vt 0.604367 0.264736
vt 0.227196 0.144780
vt 0.224657 0.203417
vt 0.370502 0.300699
vt 0.398704 0.261251
vt 0.220451 0.261846
vt 0.348903 0.346538
vt 0.225489 0.086097
vt 0.434990 0.231499
vt 0.194557 0.028179
vt 0.478815 0.215509
vt 0.215162 0.319945
vt 0.208882 0.377572
vt 0.318917 0.449317
vt 0.332168 0.396545
vt 1.194557 0.028179
vt 0.192748 0.490617
vt 0.299269 0.559935
vt 0.201498 0.434547
vt 0.308172 0.503970
vt 0.131846 0.695065
vt 0.104368 0.735264
vt 0.272917 0.849490
vt 0.275675 0.790868
vt 0.725488 0.913903
vt 0.934990 0.768502
vt 0.898703 0.738750
vt 0.727195 0.855220
vt 0.724656 0.796583
vt 0.870502 0.699302
vt 0.848902 0.653463
vt 0.720451 0.738154
vt 0.715161 0.680056
vt 0.832168 0.603455
vt 0.818916 0.550683
vt 0.708881 0.622428
vt 0.273924 0.908180
vt 0.068898 0.766137
vt 0.025680 0.783643
vt 0.296993 0.966326
vt 0.694553 0.971821
vt 0.978815 0.784492
vt 1.296993 0.966326
vt 1.025680 0.783643
vt 0.808172 0.496030
vt 0.701497 0.565453
vt 0.785385 0.325594
vt 0.669239 0.401593
vt 0.652898 0.351264
vt 0.779999 0.267535
vt 0.456470 0.247534
vt 0.504305 0.242142
vt 0.504587 0.294614
vt 0.466816 0.299489
vt 0.679551 0.049063
vt 0.663867 0.047518
vt 0.552140 0.245967
vt 0.598205 0.258731
vt 0.579573 0.306562
vt 0.542638 0.297018
vt 0.648183 0.049063
vt 0.633102 0.053638
vt 0.476762 0.731118
vt 0.427749 0.719358
vt 0.446234 0.664211
vt 0.483814 0.674146
vt 0.679551 0.206760
vt 0.694632 0.202185
vt 0.742716 0.143595
vt 0.744260 0.127911
vt 0.317060 0.493121
vt 0.322430 0.530584
vt 0.266568 0.542531
vt 0.260591 0.493540
vt 0.264472 0.444577
vt 0.319299 0.455365
vt 0.742716 0.112227
vt 0.307240 0.632836
vt 0.282285 0.589601
vt 0.335204 0.566234
vt 0.354858 0.598612
vt 0.730712 0.172575
vt 0.738141 0.158676
vt 0.330821 0.316390
vt 0.368005 0.285277
vt 0.397726 0.330251
vt 0.369054 0.355040
vt 0.720714 0.071065
vt 0.708531 0.061067
vt 0.694632 0.053637
vt 0.430739 0.311506
vt 0.410444 0.262060
vt 0.619203 0.061067
vt 0.614065 0.322704
vt 0.640842 0.279707
vt 0.381703 0.699313
vt 0.340554 0.670436
vt 0.380563 0.626391
vt 0.411310 0.648543
vt 0.708531 0.194756
vt 0.720714 0.184758
vt 0.663867 0.208305
vt 0.522551 0.676507
vt 0.526829 0.733064
vt 0.622377 0.708532
vt 0.576016 0.725296
vt 0.560898 0.671294
vt 0.597258 0.659132
vt 0.633102 0.202185
vt 0.648183 0.206760
vt 0.589593 0.158676
vt 0.597022 0.172575
vt 0.681015 0.585700
vt 0.697102 0.552051
vt 0.747733 0.568275
vt 0.727936 0.611759
vt 0.759917 0.474361
vt 0.758508 0.521860
vt 0.706177 0.515837
vt 0.707892 0.478498
vt 0.583474 0.127911
vt 0.585018 0.143595
vt 0.585018 0.112227
vt 0.702294 0.441369
vt 0.752083 0.427530
vt 0.738141 0.097146
vt 0.730712 0.083247
vt 0.345847 0.384947
vt 0.329033 0.418827
vt 0.277946 0.397557
vt 0.300383 0.354284
vt 0.699733 0.650620
vt 0.658431 0.615507
vt 0.607020 0.184758
vt 0.607020 0.071065
vt 0.644860 0.344799
vt 0.678532 0.307980
vt 0.664117 0.683326
vt 0.630166 0.640323
vt 0.619203 0.194756
vt 0.710509 0.342850
vt 0.670180 0.373315
vt 0.597022 0.083247
vt 0.735367 0.383162
vt 0.689561 0.405883
vt 0.589593 0.097146
vn 0.0000 0.0000 -1.0000
vn -1.0000 0.0000 0.0000
vn 0.0000 -1.0000 0.0000
vn 0.0000 0.0000 1.0000
vn 0.0000 -0.9987 0.0503
vn 0.0503 0.9987 0.0000
vn 0.0000 -0.9987 -0.0503
vn 0.0000 0.9987 0.0503
vn 1.0000 0.0000 0.0000
vn 0.0503 -0.9987 0.0000
vn -0.0503 0.9987 0.0000
vn 0.0000 0.9987 -0.0503
vn -0.0503 -0.9987 0.0000
vn 0.0000 0.8494 0.5277
vn 0.0000 0.2662 0.9639
vn 0.5277 0.8494 0.0000
vn 0.9639 0.2662 0.0000
vn -0.5277 0.8494 0.0000
vn -0.9639 0.2662 0.0000
vn 0.0000 0.8494 -0.5277
vn 0.0000 0.2662 -0.9639
vn 0.0000 1.0000 -0.0000
vn 0.0000 0.6857 -0.7279
vn 0.1420 0.6857 -0.7139
vn 0.1912 0.1983 -0.9613
vn 0.0000 0.1983 -0.9801
vn -0.5147 0.6857 0.5147
vn -0.6052 0.6857 0.4044
vn -0.8149 0.1983 0.5445
vn -0.6930 0.1983 0.6930
vn 0.3751 0.1983 0.9055
vn 0.2785 0.6857 0.6725
vn 0.1420 0.6857 0.7139
vn 0.1912 0.1983 0.9613
vn -0.1420 0.6857 -0.7139
vn -0.1912 0.1983 -0.9613
vn -0.3751 0.1983 0.9055
vn -0.2785 0.6857 0.6725
vn -0.4044 0.6857 0.6052
vn -0.5445 0.1983 0.8149
vn -0.7279 0.6857 0.0000
vn -0.7139 0.6857 -0.1420
vn -0.9613 0.1983 -0.1912
vn -0.9801 0.1983 0.0000
vn -0.6725 0.6857 -0.2785
vn -0.9055 0.1983 -0.3751
vn -0.7139 0.6857 0.1420
vn -0.9613 0.1983 0.1912
vn -0.6725 0.6857 0.2785
vn -0.9055 0.1983 0.3751
vn -0.6052 0.6857 -0.4044
vn -0.5147 0.6857 -0.5147
vn -0.6930 0.1983 -0.6930
vn -0.8149 0.1983 -0.5445
vn -0.2785 0.6857 -0.6725
vn -0.3751 0.1983 -0.9055
vn -0.4044 0.6857 -0.6052
vn -0.5445 0.1983 -0.8149
vn 0.2785 0.6857 -0.6725
vn 0.4044 0.6857 -0.6052
vn 0.5445 0.1983 -0.8149
vn 0.3751 0.1983 -0.9055
vn 0.9613 0.1983 -0.1912
vn 0.7139 0.6857 -0.1420
vn 0.7279 0.6857 0.0000
vn 0.9801 0.1983 0.0000
vn 0.9613 0.1983 0.1912
vn 0.7139 0.6857 0.1420
vn 0.6725 0.6857 0.2785
vn 0.9055 0.1983 0.3751
vn 0.8149 0.1983 0.5445
vn 0.6052 0.6857 0.4044
vn 0.5147 0.6857 0.5147
vn 0.6930 0.1983 0.6930
vn 0.6930 0.1983 -0.6930
vn 0.5147 0.6857 -0.5147
vn 0.6052 0.6857 -0.4044
vn 0.8149 0.1983 -0.5445
vn 0.9055 0.1983 -0.3751
vn 0.6725 0.6857 -0.2785
vn 0.4044 0.6857 0.6052
vn 0.5445 0.1983 0.8149
vn 0.0000 0.6857 0.7279
vn 0.0000 0.1983 0.9801
vn -0.1912 0.1983 0.9613
vn -0.1420 0.6857 0.7139
vn 0.0000 0.7205 0.6935
vn 0.1353 0.7205 0.6802
vn 0.0000 0.9832 0.1825
vn 0.0356 0.9832 0.1790
vn -0.2654 0.7205 0.6407
vn -0.1353 0.7205 0.6802
vn -0.0698 0.9832 0.1686
vn -0.0356 0.9832 0.1790
vn 0.2654 0.7205 -0.6407
vn 0.1353 0.7205 -0.6802
vn 0.0698 0.9832 -0.1686
vn 0.0356 0.9832 -0.1790
vn 0.1825 0.9832 0.0000
vn 0.1790 0.9832 -0.0356
vn 0.6802 0.7205 -0.1353
vn 0.6935 0.7205 0.0000
vn 0.6802 0.7205 0.1353
vn 0.1790 0.9832 0.0356
vn 0.6407 0.7205 -0.2654
vn 0.5766 0.7205 -0.3853
vn 0.1686 0.9832 -0.0698
vn 0.1517 0.9832 -0.1014
vn 0.3853 0.7205 0.5766
vn 0.4904 0.7205 0.4904
vn 0.1014 0.9832 0.1517
vn 0.1290 0.9832 0.1290
vn 0.0698 0.9832 0.1686
vn 0.2654 0.7205 0.6407
vn -0.1014 0.9832 0.1517
vn -0.3853 0.7205 0.5766
vn 0.4904 0.7205 -0.4904
vn 0.3853 0.7205 -0.5766
vn 0.1290 0.9832 -0.1290
vn 0.1014 0.9832 -0.1517
vn 0.0000 0.9832 -0.1825
vn 0.0000 0.7205 -0.6935
vn -0.1353 0.7205 -0.6802
vn -0.2654 0.7205 -0.6407
vn -0.0356 0.9832 -0.1790
vn -0.0698 0.9832 -0.1686
vn -0.1517 0.9832 -0.1014
vn -0.1686 0.9832 -0.0698
vn -0.6407 0.7205 -0.2654
vn -0.5766 0.7205 -0.3853
vn -0.6802 0.7205 -0.1353
vn -0.6935 0.7205 0.0000
vn -0.1790 0.9832 -0.0356
vn -0.1825 0.9832 0.0000
vn -0.1790 0.9832 0.0356
vn -0.6802 0.7205 0.1353
vn 0.1517 0.9832 0.1014
vn 0.1686 0.9832 0.0698
vn 0.6407 0.7205 0.2654
vn 0.5766 0.7205 0.3853
vn -0.4904 0.7205 -0.4904
vn -0.1290 0.9832 -0.1290
vn -0.1290 0.9832 0.1291
vn -0.4904 0.7205 0.4904
vn -0.3853 0.7205 -0.5766
vn -0.1014 0.9832 -0.1517
vn -0.5766 0.7205 0.3853
vn -0.1517 0.9832 0.1014
vn -0.6407 0.7205 0.2654
vn -0.1686 0.9832 0.0698
usemtl black_wood
s off
f 15/1/1 56/2/1 41/3/1 9/4/1
f 11/5/2 61/6/2 56/7/2 15/8/2
f 5/9/3 1/10/3 4/11/3 7/12/3
f 13/13/4 47/14/4 61/15/4 11/16/4
f 13/13/5 11/16/5 27/17/5 30/18/5
f 21/19/6 23/20/6 39/21/6 38/22/6
f 15/1/7 9/4/7 26/23/7 32/24/7
f 18/25/8 21/26/8 38/27/8 34/28/8
f 4/29/4 19/30/4 23/31/4 7/32/4
f 7/33/2 23/34/2 21/35/2 5/36/2
f 1/37/9 18/38/9 19/39/9 4/40/9
f 5/41/1 21/42/1 18/43/1 1/44/1
f 38/45/1 32/24/1 26/23/1 34/46/1
f 34/46/9 26/23/9 30/47/9 36/48/9
f 39/49/2 27/50/2 32/51/2 38/52/2
f 36/53/4 30/18/4 27/17/4 39/54/4
f 9/4/10 13/55/10 30/47/10 26/23/10
f 19/56/11 18/57/11 34/58/11 36/59/11
f 23/60/12 19/61/12 36/62/12 39/63/12
f 11/5/13 15/8/13 32/51/13 27/50/13
f 163/64/14 64/65/14 51/66/14
f 51/67/15 64/68/15 61/15/15 47/14/15
f 161/69/16 51/66/16 46/70/16
f 46/71/17 51/72/17 47/73/17 41/3/17
f 164/74/18 58/75/18 64/65/18
f 64/76/19 58/77/19 56/7/19 61/6/19
f 162/78/20 46/70/20 58/75/20
f 58/79/21 46/80/21 41/3/21 56/2/21
f 9/4/9 41/3/9 47/73/9 13/55/9
f 60/81/22 83/82/22 89/83/22
f 152/84/22 161/69/22 158/85/22
f 29/86/22 28/87/22 165/88/22
f 113/89/22 111/90/22 43/91/22
f 43/91/22 162/78/22 117/92/22
f 162/78/22 54/93/22 104/94/22
f 107/95/22 162/78/22 123/96/22
f 117/92/22 113/89/22 43/91/22
f 107/95/22 117/92/22 162/78/22
f 54/93/22 164/74/22 92/97/22
f 164/74/22 60/81/22 89/83/22
f 72/98/22 164/74/22 74/99/22
f 60/81/22 163/64/22 68/100/22
f 163/64/22 49/101/22 131/102/22
f 125/103/22 163/64/22 134/104/22
f 123/96/22 162/78/22 101/105/22
f 101/105/22 162/78/22 104/94/22
f 49/101/22 156/106/22 128/107/22
f 49/101/22 128/107/22 131/102/22
f 131/102/22 134/104/22 163/64/22
f 98/108/22 104/94/22 54/93/22
f 95/109/22 98/108/22 54/93/22
f 163/64/22 125/103/22 65/110/22
f 163/64/22 65/110/22 68/100/22
f 86/111/22 95/109/22 54/93/22
f 92/97/22 86/111/22 54/93/22
f 60/81/22 68/100/22 77/112/22
f 80/113/22 92/97/22 164/74/22
f 72/98/22 80/113/22 164/74/22
f 60/81/22 77/112/22 119/114/22
f 60/81/22 119/114/22 83/82/22
f 74/99/22 164/74/22 89/83/22
f 138/115/22 156/106/22 49/101/22
f 49/101/22 161/69/22 146/116/22
f 161/69/22 43/91/22 158/85/22
f 149/117/22 161/69/22 143/118/22
f 146/116/22 138/115/22 49/101/22
f 149/117/22 146/116/22 161/69/22
f 43/91/22 111/90/22 140/119/22
f 43/91/22 140/119/22 158/85/22
f 143/118/22 161/69/22 152/84/22
f 28/87/22 25/120/22 165/88/22
f 3/121/22 2/122/22 165/88/22
f 48/123/22 45/124/22 165/88/22
f 31/125/22 29/86/22 165/88/22
f 8/126/22 6/127/22 165/88/22
f 2/122/22 63/128/22 165/88/22
f 10/129/22 8/126/22 165/88/22
f 33/130/22 31/125/22 165/88/22
f 12/131/22 10/129/22 165/88/22
f 35/132/22 33/130/22 165/88/22
f 55/133/22 53/134/22 165/88/22
f 14/135/22 12/131/22 165/88/22
f 42/136/22 40/137/22 165/88/22
f 16/138/22 14/135/22 165/88/22
f 37/139/22 35/132/22 165/88/22
f 63/128/22 62/140/22 165/88/22
f 44/141/22 42/136/22 165/88/22
f 57/142/22 55/133/22 165/88/22
f 17/143/22 16/138/22 165/88/22
f 45/124/22 44/141/22 165/88/22
f 20/144/22 17/143/22 165/88/22
f 59/145/22 57/142/22 165/88/22
f 50/146/22 48/123/22 165/88/22
f 22/147/22 20/144/22 165/88/22
f 40/137/22 37/139/22 165/88/22
f 24/148/22 22/147/22 165/88/22
f 52/149/22 50/146/22 165/88/22
f 62/140/22 59/145/22 165/88/22
f 25/120/22 24/148/22 165/88/22
f 6/127/22 3/121/22 165/88/22
f 53/134/22 52/149/22 165/88/22
f 51/66/14 49/101/14 163/64/14
f 163/64/14 60/81/14 64/65/14
f 46/70/16 43/91/16 161/69/16
f 161/69/16 49/101/16 51/66/16
f 64/65/18 60/81/18 164/74/18
f 164/74/18 54/93/18 58/75/18
f 58/75/20 54/93/20 162/78/20
f 162/78/20 43/91/20 46/70/20
s 1
f 33/150/23 35/151/24 66/152/25 126/153/26
f 10/154/27 12/155/28 141/156/29 110/157/30
f 105/158/31 62/159/32 63/160/33 102/161/34
f 31/162/35 33/150/23 126/153/26 135/163/36
f 116/164/37 6/165/38 8/166/39 114/167/40
f 114/167/40 8/166/39 10/154/27 110/157/30
f 17/168/41 20/169/42 150/170/43 144/171/44
f 20/169/42 22/172/45 147/173/46 150/170/43
f 16/174/47 17/168/41 144/171/44 153/175/48
f 14/176/49 16/174/47 153/175/48 159/177/50
f 24/178/51 25/179/52 155/180/53 137/181/54
f 12/155/28 14/182/49 159/177/50 141/156/29
f 29/183/55 31/162/35 135/163/36 132/184/56
f 25/179/52 28/185/57 129/186/58 155/180/53
f 22/172/45 24/178/51 137/181/54 147/173/46
f 28/185/57 29/183/55 132/184/56 129/186/58
f 37/187/59 40/188/60 78/189/61 69/190/62
f 75/191/63 48/192/64 50/193/65 71/194/66
f 81/195/67 52/196/68 53/197/69 93/198/70
f 87/199/71 55/200/72 57/201/73 96/202/74
f 120/203/75 42/204/76 44/205/77 84/206/78
f 40/188/60 42/204/76 120/203/75 78/189/61
f 71/194/66 50/193/65 52/196/68 81/195/67
f 90/207/79 45/208/80 48/192/64 75/191/63
f 84/209/78 44/210/77 45/208/80 90/207/79
f 96/202/74 57/201/73 59/211/81 99/212/82
f 93/198/70 53/197/69 55/200/72 87/199/71
f 99/212/82 59/211/81 62/159/32 105/158/31
f 102/161/34 63/160/33 2/213/83 122/214/84
f 108/215/85 3/216/86 6/165/38 116/164/37
f 122/214/84 2/213/83 3/216/86 108/215/85
f 102/217/34 122/218/84 124/219/87 103/220/88
f 103/221/88 124/222/87 123/96/89 101/105/90
f 108/223/85 116/224/37 118/225/91 109/226/92
f 109/227/92 118/228/91 117/92/93 107/95/94
f 66/229/25 69/230/62 70/231/95 67/232/96
f 67/233/96 70/234/95 68/100/97 65/110/98
f 72/98/99 74/99/100 76/235/101 73/236/102
f 73/237/102 76/238/101 75/239/63 71/240/66
f 71/240/66 81/241/67 82/242/103 73/237/102
f 73/236/102 82/243/103 80/113/104 72/98/99
f 84/244/78 90/245/79 91/246/105 85/247/106
f 85/248/106 91/249/105 89/83/107 83/82/108
f 96/250/74 99/251/82 100/252/109 97/253/110
f 97/254/110 100/255/109 98/108/111 95/109/112
f 101/105/90 104/94/113 106/256/114 103/221/88
f 103/220/88 106/257/114 105/258/31 102/217/34
f 113/89/115 117/92/93 118/228/91 115/259/116
f 115/260/116 118/225/91 116/224/37 114/261/40
f 78/262/61 120/263/75 121/264/117 79/265/118
f 79/266/118 121/267/117 119/114/119 77/112/120
f 107/95/94 123/96/89 124/222/87 109/227/92
f 109/226/92 124/219/87 122/218/84 108/223/85
f 65/110/98 125/103/121 127/268/122 67/233/96
f 67/232/96 127/269/122 126/270/26 66/229/25
f 132/271/56 135/272/36 136/273/123 133/274/124
f 133/275/124 136/276/123 134/104/125 131/102/126
f 138/115/127 146/116/128 148/277/129 139/278/130
f 139/279/130 148/280/129 147/281/46 137/282/54
f 144/283/44 150/284/43 151/285/131 145/286/132
f 145/287/132 151/288/131 149/117/133 143/118/134
f 143/118/134 152/84/135 154/289/136 145/287/132
f 145/286/132 154/290/136 153/291/48 144/283/44
f 86/111/137 92/97/138 94/292/139 88/293/140
f 88/294/140 94/295/139 93/296/70 87/297/71
f 137/282/54 155/298/53 157/299/141 139/279/130
f 139/278/130 157/300/141 156/106/142 138/115/127
f 69/230/62 78/262/61 79/265/118 70/231/95
f 70/234/95 79/266/118 77/112/120 68/100/97
f 74/99/100 89/83/107 91/249/105 76/235/101
f 76/238/101 91/246/105 90/245/79 75/239/63
f 81/241/67 93/296/70 94/295/139 82/242/103
f 82/243/103 94/292/139 92/97/138 80/113/104
f 87/297/71 96/250/74 97/253/110 88/294/140
f 88/293/140 97/254/110 95/109/112 86/111/137
f 99/251/82 105/258/31 106/257/114 100/252/109
f 100/255/109 106/256/114 104/94/113 98/108/111
f 111/90/143 113/89/115 115/259/116 112/301/144
f 112/302/144 115/260/116 114/261/40 110/303/30
f 129/304/58 132/271/56 133/274/124 130/305/145
f 130/306/145 133/275/124 131/102/126 128/107/146
f 110/303/30 141/307/29 142/308/147 112/302/144
f 112/301/144 142/309/147 140/119/148 111/90/143
f 128/107/146 156/106/142 157/300/141 130/306/145
f 130/305/145 157/299/141 155/298/53 129/304/58
f 141/307/29 159/310/50 160/311/149 142/308/147
f 142/309/147 160/312/149 158/85/150 140/119/148
f 146/116/128 149/117/133 151/288/131 148/277/129
f 148/280/129 151/285/131 150/284/43 147/281/46
f 125/103/121 134/104/125 136/276/123 127/268/122
f 127/269/122 136/273/123 135/272/36 126/270/26
f 152/84/135 158/85/150 160/312/149 154/289/136
f 154/290/136 160/311/149 159/310/50 153/291/48
f 83/82/108 119/114/119 121/267/117 85/248/106
f 85/247/106 121/264/117 120/263/75 84/244/78
f 35/151/24 37/187/59 69/190/62 66/152/25
