# Blender v3.0.0 OBJ File: 'quarto.blend'
# www.blender.org
mtllib black_piece.mtl
o bssh_Cube.010
v 0.075000 0.000000 -0.075000
v -0.000000 0.160000 -0.045000
v 0.075000 0.000000 0.075000
v 0.008779 0.160000 -0.044135
v -0.075000 0.000000 -0.075000
v 0.017221 0.160000 -0.041575
v -0.075000 0.000000 0.075000
v 0.025001 0.160000 -0.037416
v 0.031820 0.160000 -0.031820
v 0.075000 0.130000 -0.075000
v 0.037416 0.160000 -0.025001
v -0.075000 0.130000 0.075000
v 0.041575 0.160000 -0.017221
v 0.075000 0.130000 0.075000
v 0.044135 0.160000 -0.008779
v -0.075000 0.130000 -0.075000
v -0.075000 0.150000 0.075000
v 0.045000 0.160000 0.000000
v 0.075000 0.150000 -0.075000
v 0.044135 0.160000 0.008779
v 0.075000 0.150000 0.075000
v 0.041575 0.160000 0.017221
v -0.075000 0.150000 -0.075000
v 0.037416 0.160000 0.025001
v 0.075000 0.188385 -0.075000
v 0.031820 0.160000 0.031820
v 0.063385 0.200000 -0.063385
v 0.025001 0.160000 0.037416
v 0.017221 0.160000 0.041575
v 0.071598 0.196598 -0.071598
v 0.008779 0.160000 0.044135
v 0.075000 0.188385 0.075000
v 0.063385 0.200000 0.063385
v -0.000000 0.160000 0.045000
v -0.008779 0.160000 0.044135
v 0.071598 0.196598 0.071598
v -0.017221 0.160000 0.041575
v -0.063385 0.200000 -0.063385
v -0.075000 0.188385 -0.075000
v -0.025001 0.160000 0.037416
v -0.031820 0.160000 0.031820
v -0.071598 0.196598 -0.071598
v -0.063385 0.200000 0.063385
v -0.037416 0.160000 0.025001
v -0.075000 0.188385 0.075000
v -0.041575 0.160000 0.017221
v -0.044135 0.160000 0.008779
v -0.071598 0.196598 0.071598
v -0.045000 0.160000 -0.000000
v -0.044135 0.160000 -0.008779
v -0.041575 0.160000 -0.017221
v -0.037416 0.160000 -0.025001
v -0.031820 0.160000 -0.031820
v -0.025001 0.160000 -0.037416
v -0.017221 0.160000 -0.041575
v -0.008779 0.160000 -0.044135
v 0.067500 0.130000 -0.067500
v -0.067500 0.130000 0.067500
v 0.067500 0.130000 0.067500
v -0.067500 0.130000 -0.067500
v -0.067500 0.150000 0.067500
v 0.067500 0.150000 -0.067500
v 0.067500 0.150000 0.067500
v -0.067500 0.150000 -0.067500
v -0.009933 0.200000 0.049936
v -0.008779 0.194114 0.044135
v -0.009117 0.198276 0.045834
v -0.019484 0.200000 0.047039
v -0.017221 0.194114 0.041575
v -0.017884 0.198276 0.043175
v -0.028286 0.200000 0.042334
v -0.025001 0.194114 0.037416
v -0.025963 0.198276 0.038856
v -0.050914 0.200000 -0.000000
v -0.045000 0.194114 -0.000000
v -0.046732 0.198276 -0.000000
v -0.049936 0.200000 0.009933
v -0.044135 0.194114 0.008779
v -0.045834 0.198276 0.009117
v -0.044135 0.194114 -0.008779
v -0.049936 0.200000 -0.009933
v -0.045834 0.198276 -0.009117
v -0.042334 0.200000 0.028286
v -0.037416 0.194114 0.025001
v -0.038856 0.198276 0.025963
v -0.042334 0.200000 -0.028286
v -0.037416 0.194114 -0.025001
v -0.038856 0.198276 -0.025963
v -0.047039 0.200000 0.019484
v -0.041575 0.194114 0.017221
v -0.043175 0.198276 0.017884
v -0.047039 0.200000 -0.019484
v -0.041575 0.194114 -0.017221
v -0.043175 0.198276 -0.017884
v -0.036002 0.200000 -0.036002
v -0.031820 0.194114 -0.031820
v -0.033045 0.198276 -0.033045
v -0.028286 0.200000 -0.042334
v -0.025001 0.194114 -0.037416
v -0.025963 0.198276 -0.038856
v -0.008779 0.194114 -0.044135
v -0.009933 0.200000 -0.049936
v -0.009117 0.198276 -0.045834
v -0.019484 0.200000 -0.047039
v -0.017221 0.194114 -0.041575
v -0.017884 0.198276 -0.043175
v -0.036002 0.200000 0.036002
v -0.031820 0.194114 0.031820
v -0.033045 0.198276 0.033045
v 0.009933 0.200000 -0.049936
v 0.008779 0.194114 -0.044135
v 0.009117 0.198276 -0.045834
v 0.031820 0.194114 -0.031820
v 0.036002 0.200000 -0.036002
v 0.033045 0.198276 -0.033045
v 0.028286 0.200000 -0.042334
v 0.025001 0.194114 -0.037416
v 0.025963 0.198276 -0.038856
v 0.019484 0.200000 -0.047039
v 0.017221 0.194114 -0.041575
v 0.017884 0.198276 -0.043175
v 0.000000 0.200000 -0.050914
v -0.000000 0.194114 -0.045000
v -0.000000 0.198276 -0.046732
v -0.000000 0.200000 0.050914
v -0.000000 0.194114 0.045000
v -0.000000 0.198276 0.046732
v 0.028286 0.200000 0.042334
v 0.025001 0.194114 0.037416
v 0.025963 0.198276 0.038856
v 0.019484 0.200000 0.047039
v 0.017221 0.194114 0.041575
v 0.017884 0.198276 0.043175
v 0.009933 0.200000 0.049936
v 0.008779 0.194114 0.044135
v 0.009117 0.198276 0.045834
v 0.037416 0.194114 0.025001
v 0.042334 0.200000 0.028286
v 0.038856 0.198276 0.025963
v 0.037416 0.194114 -0.025001
v 0.042334 0.200000 -0.028286
v 0.038856 0.198276 -0.025963
v 0.045000 0.194114 0.000000
v 0.050914 0.200000 0.000000
v 0.046732 0.198276 0.000000
v 0.047039 0.200000 0.019484
v 0.041575 0.194114 0.017221
v 0.043175 0.198276 0.017884
v 0.049936 0.200000 0.009933
v 0.044135 0.194114 0.008779
v 0.045834 0.198276 0.009117
v 0.049936 0.200000 -0.009933
v 0.044135 0.194114 -0.008779
v 0.045834 0.198276 -0.009117
v 0.031820 0.194114 0.031820
v 0.036002 0.200000 0.036002
v 0.033045 0.198276 0.033045
v 0.047039 0.200000 -0.019484
v 0.041575 0.194114 -0.017221
v 0.043175 0.198276 -0.017884
v 0.000000 0.200000 0.063385
v -0.063385 0.200000 0.000000
v 0.000000 0.200000 -0.063385
v 0.063385 0.200000 0.000000
v -0.000000 0.160000 -0.000000
vt 0.083596 0.252251
vt 0.019777 0.252879
vt 0.015710 0.001686
vt 0.080921 0.000771
vt 0.084153 0.501026
vt 0.020718 0.500985
vt 0.583772 0.534122
vt 0.334012 0.534122
vt 0.334012 0.284362
vt 0.583772 0.284362
vt 0.082966 0.748869
vt 0.019676 0.748203
vt 0.334012 0.251685
vt 0.116851 0.251938
vt 0.115313 0.000519
vt 0.334012 0.000000
vt 0.328947 1.000000
vt 0.113159 0.997781
vt 0.115935 0.749235
vt 0.331508 0.751014
vt 0.333242 0.501809
vt 0.117228 0.501068
vt 0.083596 0.252251
vt 0.084153 0.501026
vt 0.115935 0.749235
vt 0.117228 0.501068
vt 0.082966 0.748869
vt 0.116851 0.251938
vt 0.115313 0.000519
vt 0.350175 0.142183
vt 0.334012 0.273078
vt 0.334013 0.011284
vt 0.004800 0.748006
vt 0.005688 0.500986
vt 0.468614 0.022334
vt 0.603221 0.000000
vt 0.000924 0.990281
vt 0.015873 0.996277
vt 0.468619 0.262028
vt 0.603221 0.284362
vt 0.004770 0.253099
vt 0.587058 0.142179
vt 0.000000 0.007787
vt 0.079720 0.997287
vt 0.350175 0.257544
vt 0.415977 0.220465
vt 0.432280 0.229589
vt 0.486942 0.048006
vt 0.504632 0.053137
vt 0.382999 0.409600
vt 0.400415 0.387352
vt 0.504337 0.487254
vt 0.080921 0.000771
vt 0.113159 0.997781
vt 0.079720 0.997287
vt 0.547352 0.088125
vt 0.535418 0.073556
vt 0.587053 0.017846
vt 0.556198 0.104865
vt 0.587063 0.266512
vt 0.556222 0.179527
vt 0.561594 0.123136
vt 0.563382 0.142192
vt 0.504639 0.231222
vt 0.468553 0.237840
vt 0.450045 0.235491
vt 0.381316 0.177924
vt 0.350175 0.026823
vt 0.381319 0.106618
vt 0.373969 0.142255
vt 0.375867 0.124096
vt 0.561603 0.161251
vt 0.401813 0.076165
vt 0.390054 0.090445
vt 0.547401 0.196275
vt 0.535497 0.210824
vt 0.375864 0.160421
vt 0.521034 0.222614
vt 0.390045 0.194141
vt 0.486943 0.236365
vt 0.401732 0.208497
vt 0.416041 0.064005
vt 0.432318 0.054831
vt 0.450064 0.048907
vt 0.468558 0.046545
vt 0.521016 0.061737
vt 0.421858 0.368930
vt 0.446502 0.355055
vt 0.561744 0.618475
vt 0.535036 0.627123
vt 0.586270 0.604795
vt 0.479182 0.628227
vt 0.452157 0.620642
vt 0.370277 0.434807
vt 0.638006 0.539547
vt 0.625149 0.564571
vt 0.362728 0.461994
vt 0.648070 0.484398
vt 0.645750 0.512479
vt 0.507163 0.630415
vt 0.360633 0.490109
vt 0.582091 0.365733
vt 0.604249 0.383288
vt 0.364058 0.518070
vt 0.556914 0.352851
vt 0.636247 0.429513
vt 0.644866 0.456383
vt 0.372860 0.544805
vt 0.386691 0.569295
vt 0.529694 0.345148
vt 0.622535 0.404828
vt 0.607678 0.586598
vt 0.427115 0.607944
vt 0.405011 0.590610
vt 0.501488 0.342926
vt 0.473394 0.346272
vt 0.179285 0.518417
vt 0.163095 0.567271
vt 0.273036 0.679914
vt 0.284821 0.625336
vt 0.729757 0.154094
vt 0.701145 0.099847
vt 0.561497 0.284947
vt 0.593986 0.311084
vt 0.679285 0.481583
vt 0.784821 0.374664
vt 0.773036 0.320085
vt 0.663095 0.432729
vt 0.193442 0.467284
vt 0.296961 0.571661
vt 0.644089 0.387068
vt 0.760897 0.264910
vt 0.747274 0.209441
vt 0.621354 0.345911
vt 0.414401 0.042333
vt 0.310619 0.086281
vt 0.447694 0.279904
vt 0.485484 0.268287
vt 0.276035 0.139841
vt 0.413919 0.303361
vt 0.256710 0.195042
vt 0.385237 0.336177
vt 0.627499 0.051338
vt 0.524547 0.270051
vt 0.242399 0.250530
vt 0.230011 0.305812
vt 0.341498 0.420527
vt 0.361380 0.375890
vt 0.206223 0.414515
vt 0.310041 0.519266
vt 0.218212 0.360573
vt 0.324658 0.468654
vt 0.144089 0.612931
vt 0.121354 0.654089
vt 0.247273 0.790559
vt 0.260897 0.735089
vt 0.093986 0.688915
vt 0.229756 0.845906
vt 0.810620 0.913719
vt 0.947694 0.720096
vt 0.913919 0.696638
vt 0.776036 0.860159
vt 0.742399 0.749470
vt 0.861381 0.624110
vt 0.841498 0.579473
vt 0.730011 0.694188
vt 0.061497 0.715053
vt 0.201145 0.900152
vt 0.885237 0.663822
vt 0.756710 0.804958
vt 1.127498 0.948662
vt 1.024547 0.729948
vt 0.985484 0.731712
vt 0.914402 0.957666
vt 0.024547 0.729948
vt 0.127498 0.948662
vt 0.824658 0.531346
vt 0.718213 0.639427
vt 0.810041 0.480734
vt 0.706223 0.585485
vt 0.796961 0.428339
vt 0.693442 0.532716
vt 0.274968 0.502141
vt 0.281370 0.454363
vt 0.328316 0.464753
vt 0.322408 0.502866
vt 0.387049 0.158256
vt 0.391847 0.173708
vt 0.484631 0.059574
vt 0.468603 0.058024
vt 0.542702 0.700740
vt 0.579129 0.690640
vt 0.595289 0.730315
vt 0.551130 0.743147
vt 0.436525 0.219131
vt 0.452172 0.224253
vt 0.451055 0.325176
vt 0.417110 0.342353
vt 0.392847 0.300952
vt 0.435896 0.280360
vt 0.658333 0.314983
vt 0.692069 0.346833
vt 0.657988 0.375371
vt 0.630259 0.349942
vt 0.527536 0.202297
vt 0.538113 0.189500
vt 0.545912 0.174786
vt 0.550615 0.158789
vt 0.695975 0.440143
vt 0.680169 0.405832
vt 0.718820 0.384642
vt 0.737629 0.426912
vt 0.538110 0.094861
vt 0.527532 0.082064
vt 0.669611 0.622366
vt 0.688425 0.589045
vt 0.726244 0.607141
vt 0.703027 0.646672
vt 0.747862 0.472002
vt 0.704830 0.476998
vt 0.552049 0.142180
vt 0.385209 0.142183
vt 0.324230 0.541303
vt 0.278167 0.549958
vt 0.311653 0.638172
vt 0.290605 0.595897
vt 0.333527 0.578464
vt 0.349838 0.612865
vt 0.391847 0.110658
vt 0.387049 0.126109
vt 0.672619 0.681085
vt 0.643768 0.650710
vt 0.514682 0.071707
vt 0.436523 0.065233
vt 0.422197 0.073196
vt 0.433046 0.687092
vt 0.468441 0.699053
vt 0.459986 0.742233
vt 0.416146 0.728170
vt 0.505565 0.747270
vt 0.505465 0.703666
vt 0.452170 0.060110
vt 0.375761 0.705554
vt 0.400649 0.668231
vt 0.409699 0.083701
vt 0.500183 0.064151
vt 0.613196 0.673695
vt 0.636245 0.709291
vt 0.550614 0.125571
vt 0.706428 0.515024
vt 0.749224 0.518202
vt 0.545910 0.109574
vt 0.700870 0.552836
vt 0.741882 0.563807
vt 0.297146 0.408440
vt 0.321907 0.366316
vt 0.361960 0.395431
vt 0.341633 0.428411
vt 0.399475 0.188014
vt 0.409700 0.200663
vt 0.354194 0.329923
vt 0.386856 0.366057
vt 0.422198 0.211167
vt 0.468606 0.226338
vt 0.487570 0.315208
vt 0.481823 0.268857
vt 0.528860 0.266767
vt 0.525252 0.312792
vt 0.484635 0.224785
vt 0.575131 0.274071
vt 0.562559 0.317989
vt 0.500188 0.220207
vt 0.618857 0.290385
vt 0.598036 0.330551
vt 0.514686 0.212653
vt 0.340446 0.675185
vt 0.372531 0.643175
vt 0.399474 0.096351
vn 0.0000 0.0000 -1.0000
vn -1.0000 0.0000 0.0000
vn 0.0000 -1.0000 0.0000
vn 0.0000 0.0000 1.0000
vn 1.0000 0.0000 0.0000
vn 0.0000 1.0000 0.0000
vn 0.0000 0.9239 0.3827
vn 0.0000 0.3827 0.9239
vn 0.3827 0.9239 0.0000
vn 0.9239 0.3827 0.0000
vn -0.3827 0.9239 0.0000
vn -0.9239 0.3827 0.0000
vn 0.0000 0.9239 -0.3827
vn 0.0000 0.3827 -0.9239
vn 0.0000 0.6857 -0.7279
vn 0.1420 0.6857 -0.7139
vn 0.1912 0.1983 -0.9613
vn 0.0000 0.1983 -0.9801
vn -0.5147 0.6857 0.5147
vn -0.6052 0.6857 0.4044
vn -0.8149 0.1983 0.5445
vn -0.6930 0.1983 0.6930
vn 0.0000 0.1983 0.9801
vn 0.0000 0.6857 0.7279
vn -0.1420 0.6857 0.7139
vn -0.1912 0.1983 0.9613
vn -0.1420 0.6857 -0.7139
vn -0.1912 0.1983 -0.9613
vn -0.3751 0.1983 0.9055
vn -0.2785 0.6857 0.6725
vn -0.4044 0.6857 0.6052
vn -0.5445 0.1983 0.8149
vn -0.7139 0.6857 0.1420
vn -0.7279 0.6857 0.0000
vn -0.9801 0.1983 0.0000
vn -0.9613 0.1983 0.1912
vn -0.7139 0.6857 -0.1420
vn -0.9613 0.1983 -0.1912
vn -0.6725 0.6857 -0.2785
vn -0.9055 0.1983 -0.3751
vn -0.6725 0.6857 0.2785
vn -0.9055 0.1983 0.3751
vn -0.6052 0.6857 -0.4044
vn -0.5147 0.6857 -0.5147
vn -0.6930 0.1983 -0.6930
vn -0.8149 0.1983 -0.5445
vn -0.2785 0.6857 -0.6725
vn -0.3751 0.1983 -0.9055
vn -0.4044 0.6857 -0.6052
vn -0.5445 0.1983 -0.8149
vn 0.2785 0.6857 -0.6725
vn 0.4044 0.6857 -0.6052
vn 0.5445 0.1983 -0.8149
vn 0.3751 0.1983 -0.9055
vn 0.5147 0.6857 -0.5147
vn 0.6930 0.1983 -0.6930
vn 0.9801 0.1983 0.0000
vn 0.7279 0.6857 0.0000
vn 0.7139 0.6857 0.1420
vn 0.9613 0.1983 0.1912
vn 0.8149 0.1983 0.5445
vn 0.6052 0.6857 0.4044
vn 0.5147 0.6857 0.5147
vn 0.6930 0.1983 0.6930
vn 0.6052 0.6857 -0.4044
vn 0.8149 0.1983 -0.5445
vn 0.6725 0.6857 0.2785
vn 0.9055 0.1983 0.3751
vn 0.9055 0.1983 -0.3751
vn 0.6725 0.6857 -0.2785
vn 0.7139 0.6857 -0.1420
vn 0.9613 0.1983 -0.1912
vn 0.4044 0.6857 0.6052
vn 0.5445 0.1983 0.8149
vn 0.2785 0.6857 0.6725
vn 0.3751 0.1983 0.9055
vn 0.1420 0.6857 0.7139
vn 0.1912 0.1983 0.9613
vn 0.2654 0.7205 -0.6407
vn 0.1353 0.7205 -0.6802
vn 0.0698 0.9832 -0.1686
vn 0.0356 0.9832 -0.1790
vn -0.1825 0.9832 0.0000
vn -0.1790 0.9832 0.0356
vn -0.6802 0.7205 0.1353
vn -0.6935 0.7205 0.0000
vn 0.1790 0.9832 -0.0356
vn 0.1686 0.9832 -0.0698
vn 0.6407 0.7205 -0.2654
vn 0.6802 0.7205 -0.1353
vn 0.3853 0.7205 0.5766
vn 0.4904 0.7205 0.4904
vn 0.1014 0.9832 0.1517
vn 0.1290 0.9832 0.1290
vn 0.0356 0.9832 0.1790
vn 0.0698 0.9832 0.1686
vn 0.2654 0.7205 0.6407
vn 0.1353 0.7205 0.6802
vn -0.1290 0.9832 0.1290
vn -0.1014 0.9832 0.1517
vn -0.3853 0.7205 0.5766
vn -0.4904 0.7205 0.4904
vn 0.0000 0.7205 0.6935
vn 0.0000 0.9832 0.1825
vn 0.0000 0.9832 -0.1825
vn 0.0000 0.7205 -0.6935
vn -0.1353 0.7205 -0.6802
vn -0.2654 0.7205 -0.6407
vn -0.0356 0.9832 -0.1790
vn -0.0698 0.9832 -0.1686
vn -0.5766 0.7205 0.3853
vn -0.1517 0.9832 0.1014
vn -0.1517 0.9832 -0.1014
vn -0.1686 0.9832 -0.0698
vn -0.6407 0.7205 -0.2654
vn -0.5766 0.7205 -0.3853
vn -0.6802 0.7205 -0.1353
vn -0.1790 0.9832 -0.0356
vn -0.4904 0.7205 -0.4904
vn -0.1290 0.9832 -0.1291
vn -0.1686 0.9832 0.0698
vn -0.6407 0.7205 0.2654
vn -0.0356 0.9832 0.1790
vn -0.1353 0.7205 0.6802
vn -0.0698 0.9832 0.1686
vn -0.2654 0.7205 0.6407
vn 0.4904 0.7205 -0.4904
vn 0.3853 0.7205 -0.5766
vn 0.1290 0.9832 -0.1290
vn 0.1014 0.9832 -0.1517
vn 0.5766 0.7205 -0.3853
vn 0.1517 0.9832 -0.1014
vn 0.1825 0.9832 0.0000
vn 0.6935 0.7205 0.0000
vn 0.6802 0.7205 0.1353
vn 0.1790 0.9832 0.0356
vn 0.6407 0.7205 0.2654
vn 0.1686 0.9832 0.0698
vn 0.5766 0.7205 0.3853
vn 0.1517 0.9832 0.1014
vn -0.3853 0.7205 -0.5766
vn -0.1014 0.9832 -0.1517
usemtl black_wood
s off
f 23/1/1 39/2/1 25/3/1 19/4/1
f 17/5/2 45/6/2 39/2/2 23/1/2
f 5/7/3 1/8/3 3/9/3 7/10/3
f 21/11/4 32/12/4 45/6/4 17/5/4
f 5/13/1 16/14/1 10/15/1 1/16/1
f 1/17/5 10/18/5 14/19/5 3/20/5
f 7/21/2 12/22/2 16/14/2 5/13/2
f 3/20/4 14/19/4 12/22/4 7/21/4
f 17/5/3 23/1/3 64/23/3 61/24/3
f 12/22/6 14/19/6 59/25/6 58/26/6
f 21/11/3 17/5/3 61/24/3 63/27/3
f 10/15/6 16/14/6 60/28/6 57/29/6
f 161/30/7 48/31/7 36/32/7
f 36/33/8 48/34/8 45/6/8 32/12/8
f 164/35/9 36/32/9 30/36/9
f 30/37/10 36/33/10 32/12/10 25/38/10
f 162/39/11 42/40/11 48/31/11
f 48/34/12 42/41/12 39/2/12 45/6/12
f 163/42/13 30/36/13 42/40/13
f 42/41/14 30/43/14 25/3/14 39/2/14
f 19/44/5 25/38/5 32/12/5 21/11/5
f 43/45/6 83/46/6 89/47/6
f 152/48/6 164/35/6 158/49/6
f 20/50/6 18/51/6 165/52/6
f 60/28/1 64/23/1 62/53/1 57/29/1
f 57/54/5 62/55/5 63/27/5 59/25/5
f 58/26/2 61/24/2 64/23/2 60/28/2
f 59/25/4 63/27/4 61/24/4 58/26/4
f 23/1/3 19/4/3 62/53/3 64/23/3
f 14/19/6 10/18/6 57/54/6 59/25/6
f 16/14/6 12/22/6 58/26/6 60/28/6
f 19/44/3 21/11/3 63/27/3 62/55/3
f 116/56/6 114/57/6 27/58/6
f 27/58/6 163/42/6 119/59/6
f 163/42/6 38/60/6 104/61/6
f 110/62/6 163/42/6 122/63/6
f 119/59/6 116/56/6 27/58/6
f 110/62/6 119/59/6 163/42/6
f 38/60/6 162/39/6 92/64/6
f 162/39/6 43/45/6 89/47/6
f 74/65/6 162/39/6 77/66/6
f 43/45/6 161/30/6 68/67/6
f 161/30/6 33/68/6 131/69/6
f 125/70/6 161/30/6 134/71/6
f 122/63/6 163/42/6 102/72/6
f 102/72/6 163/42/6 104/61/6
f 33/68/6 156/73/6 128/74/6
f 33/68/6 128/74/6 131/69/6
f 131/69/6 134/71/6 161/30/6
f 98/75/6 104/61/6 38/60/6
f 95/76/6 98/75/6 38/60/6
f 161/30/6 125/70/6 65/77/6
f 161/30/6 65/77/6 68/67/6
f 86/78/6 95/76/6 38/60/6
f 92/64/6 86/78/6 38/60/6
f 43/45/6 68/67/6 71/79/6
f 81/80/6 92/64/6 162/39/6
f 74/65/6 81/80/6 162/39/6
f 43/45/6 71/79/6 107/81/6
f 43/45/6 107/81/6 83/46/6
f 77/66/6 162/39/6 89/47/6
f 138/82/6 156/73/6 33/68/6
f 33/68/6 164/35/6 146/83/6
f 164/35/6 27/58/6 158/49/6
f 149/84/6 164/35/6 144/85/6
f 146/83/6 138/82/6 33/68/6
f 149/84/6 146/83/6 164/35/6
f 27/58/6 114/57/6 141/86/6
f 27/58/6 141/86/6 158/49/6
f 144/85/6 164/35/6 152/48/6
f 15/87/6 13/88/6 165/52/6
f 46/89/6 44/90/6 165/52/6
f 47/91/6 46/89/6 165/52/6
f 40/92/6 37/93/6 165/52/6
f 22/94/6 20/50/6 165/52/6
f 18/51/6 15/87/6 165/52/6
f 51/95/6 50/96/6 165/52/6
f 24/97/6 22/94/6 165/52/6
f 53/98/6 52/99/6 165/52/6
f 44/90/6 41/100/6 165/52/6
f 26/101/6 24/97/6 165/52/6
f 4/102/6 2/103/6 165/52/6
f 28/104/6 26/101/6 165/52/6
f 6/105/6 4/102/6 165/52/6
f 55/106/6 54/107/6 165/52/6
f 29/108/6 28/104/6 165/52/6
f 31/109/6 29/108/6 165/52/6
f 8/110/6 6/105/6 165/52/6
f 2/103/6 56/111/6 165/52/6
f 49/112/6 47/91/6 165/52/6
f 35/113/6 34/114/6 165/52/6
f 9/115/6 8/110/6 165/52/6
f 50/96/6 49/112/6 165/52/6
f 11/116/6 9/115/6 165/52/6
f 52/99/6 51/95/6 165/52/6
f 41/100/6 40/92/6 165/52/6
f 34/114/6 31/109/6 165/52/6
f 54/107/6 53/98/6 165/52/6
f 13/88/6 11/116/6 165/52/6
f 56/111/6 55/106/6 165/52/6
f 37/93/6 35/113/6 165/52/6
f 30/36/9 27/58/9 164/35/9
f 164/35/9 33/68/9 36/32/9
f 36/32/7 33/68/7 161/30/7
f 161/30/7 43/45/7 48/31/7
f 48/31/11 43/45/11 162/39/11
f 162/39/11 38/60/11 42/40/11
f 42/40/13 38/60/13 163/42/13
f 163/42/13 27/58/13 30/36/13
s 1
f 34/117/15 35/118/16 66/119/17 126/120/18
f 9/121/19 11/122/20 140/123/21 113/124/22
f 123/125/23 2/126/24 4/127/25 111/128/26
f 31/129/27 34/117/15 126/120/18 135/130/28
f 120/131/29 6/132/30 8/133/31 117/134/32
f 117/134/32 8/133/31 9/121/19 113/124/22
f 15/135/33 18/136/34 143/137/35 153/138/36
f 18/136/34 20/139/37 150/140/38 143/137/35
f 20/139/37 22/141/39 147/142/40 150/140/38
f 13/143/41 15/135/33 153/138/36 159/144/42
f 24/145/43 26/146/44 155/147/45 137/148/46
f 11/122/20 13/143/41 159/144/42 140/123/21
f 29/149/47 31/129/27 135/130/28 132/150/48
f 26/146/44 28/151/49 129/152/50 155/147/45
f 22/141/39 24/145/43 137/148/46 147/142/40
f 28/151/49 29/149/47 132/150/48 129/152/50
f 37/153/51 40/154/52 72/155/53 69/156/54
f 40/154/52 41/157/55 108/158/56 72/155/53
f 75/159/57 49/160/58 50/161/59 80/162/60
f 87/163/61 52/164/62 53/165/63 96/166/64
f 108/158/56 41/157/55 44/167/65 84/168/66
f 80/162/60 50/161/59 51/169/67 93/170/68
f 90/171/69 46/172/70 47/173/71 78/174/72
f 78/174/72 47/173/71 49/160/58 75/159/57
f 84/168/66 44/167/65 46/175/70 90/176/69
f 96/166/64 53/165/63 54/177/73 99/178/74
f 93/170/68 51/169/67 52/164/62 87/163/61
f 99/178/74 54/177/73 55/179/75 105/180/76
f 105/180/76 55/179/75 56/181/77 101/182/78
f 101/182/78 56/181/77 2/126/24 123/125/23
f 111/128/26 4/127/25 6/132/30 120/131/29
f 66/183/17 69/184/54 70/185/79 67/186/80
f 67/187/80 70/188/79 68/67/81 65/77/82
f 144/85/83 152/48/84 154/189/85 145/190/86
f 145/191/86 154/192/85 153/193/36 143/194/35
f 77/66/87 89/47/88 91/195/89 79/196/90
f 79/197/90 91/198/89 90/199/69 78/200/72
f 96/201/64 99/202/74 100/203/91 97/204/92
f 97/205/92 100/206/91 98/75/93 95/76/94
f 102/72/95 104/61/96 106/207/97 103/208/98
f 103/209/98 106/210/97 105/211/76 101/212/78
f 114/57/99 116/56/100 118/213/101 115/214/102
f 115/215/102 118/216/101 117/217/32 113/218/22
f 101/212/78 123/219/23 124/220/103 103/209/98
f 103/208/98 124/221/103 122/63/104 102/72/95
f 65/77/82 125/70/105 127/222/106 67/187/80
f 67/186/80 127/223/106 126/224/18 66/183/17
f 132/225/48 135/226/28 136/227/107 133/228/108
f 133/229/108 136/230/107 134/71/109 131/69/110
f 113/218/22 140/231/21 142/232/111 115/215/102
f 115/214/102 142/233/111 141/86/112 114/57/99
f 138/82/113 146/83/114 148/234/115 139/235/116
f 139/236/116 148/237/115 147/238/40 137/239/46
f 143/194/35 150/240/38 151/241/117 145/191/86
f 145/190/86 151/242/117 149/84/118 144/85/83
f 137/239/46 155/243/45 157/244/119 139/236/116
f 139/235/116 157/245/119 156/73/120 138/82/113
f 152/48/84 158/49/121 160/246/122 154/189/85
f 154/192/85 160/247/122 159/248/42 153/193/36
f 110/62/123 122/63/104 124/221/103 112/249/124
f 112/250/124 124/220/103 123/219/23 111/251/26
f 116/56/100 119/59/125 121/252/126 118/213/101
f 118/216/101 121/253/126 120/254/29 117/217/32
f 72/255/53 108/256/56 109/257/127 73/258/128
f 73/259/128 109/260/127 107/81/129 71/79/130
f 84/261/66 90/199/69 91/198/89 85/262/131
f 85/263/131 91/195/89 89/47/88 83/46/132
f 69/184/54 72/255/53 73/258/128 70/185/79
f 70/188/79 73/259/128 71/79/130 68/67/81
f 74/65/133 77/66/87 79/196/90 76/264/134
f 76/265/134 79/197/90 78/200/72 75/266/57
f 75/266/57 80/267/60 82/268/135 76/265/134
f 76/264/134 82/269/135 81/80/136 74/65/133
f 80/267/60 93/270/68 94/271/137 82/268/135
f 82/269/135 94/272/137 92/64/138 81/80/136
f 87/273/61 96/201/64 97/204/92 88/274/139
f 88/275/139 97/205/92 95/76/94 86/78/140
f 99/202/74 105/211/76 106/210/97 100/203/91
f 100/206/91 106/207/97 104/61/96 98/75/93
f 111/251/26 120/254/29 121/253/126 112/250/124
f 112/249/124 121/252/126 119/59/125 110/62/123
f 129/276/50 132/225/48 133/228/108 130/277/141
f 130/278/141 133/229/108 131/69/110 128/74/142
f 86/78/140 92/64/138 94/272/137 88/275/139
f 88/274/139 94/271/137 93/270/68 87/273/61
f 83/46/132 107/81/129 109/260/127 85/263/131
f 85/262/131 109/257/127 108/256/56 84/261/66
f 146/83/114 149/84/118 151/242/117 148/234/115
f 148/237/115 151/241/117 150/240/38 147/238/40
f 128/74/142 156/73/120 157/245/119 130/278/141
f 130/277/141 157/244/119 155/243/45 129/276/50
f 140/231/21 159/248/42 160/247/122 142/232/111
f 142/233/111 160/246/122 158/49/121 141/86/112
f 125/70/105 134/71/109 136/230/107 127/222/106
f 127/223/106 136/227/107 135/226/28 126/224/18
f 35/118/16 37/153/51 69/156/54 66/119/17
