# Blender v3.0.0 OBJ File: 'quarto.blend'
# www.blender.org
mtllib white_piece.mtl
o wssf_Cube
v 0.075000 0.000000 -0.075000
v 0.075000 0.000000 0.075000
v -0.075000 0.000000 -0.075000
v -0.075000 0.000000 0.075000
v 0.075000 0.130000 -0.075000
v -0.075000 0.130000 0.075000
v 0.075000 0.130000 0.075000
v -0.075000 0.130000 -0.075000
v -0.075000 0.150000 0.075000
v 0.075000 0.150000 -0.075000
v 0.075000 0.150000 0.075000
v -0.075000 0.150000 -0.075000
v 0.075000 0.188385 -0.075000
v 0.063385 0.200000 -0.063385
v 0.071598 0.196598 -0.071598
v 0.075000 0.188385 0.075000
v 0.063385 0.200000 0.063385
v 0.071598 0.196598 0.071598
v -0.063385 0.200000 -0.063385
v -0.075000 0.188385 -0.075000
v -0.071598 0.196598 -0.071598
v -0.063385 0.200000 0.063385
v -0.075000 0.188385 0.075000
v -0.071598 0.196598 0.071598
v 0.067500 0.130000 -0.067500
v -0.067500 0.130000 0.067500
v 0.067500 0.130000 0.067500
v -0.067500 0.130000 -0.067500
v -0.067500 0.150000 0.067500
v 0.067500 0.150000 -0.067500
v 0.067500 0.150000 0.067500
v -0.067500 0.150000 -0.067500
vt 0.250349 0.748834
vt 0.313706 0.748222
vt 0.317295 0.996545
vt 0.253384 0.997500
vt 0.249366 0.500743
vt 0.312872 0.500730
vt 0.581930 0.000000
vt 0.581930 0.249666
vt 0.332264 0.249666
vt 0.332264 0.000000
vt 0.346589 0.263996
vt 0.558394 0.264006
vt 0.558394 0.475811
vt 0.346589 0.475802
vt 0.250068 0.251778
vt 0.313850 0.252297
vt 0.001562 0.750770
vt 0.217344 0.749173
vt 0.219911 0.997964
vt 0.003912 1.000000
vt 0.001011 0.000000
vt 0.218469 0.000877
vt 0.216845 0.251520
vt 0.000000 0.250912
vt 0.000041 0.501325
vt 0.216249 0.500775
vt 0.218469 0.000877
vt 0.216845 0.251520
vt 0.216249 0.500775
vt 0.253384 0.997500
vt 0.250349 0.748834
vt 0.249366 0.500743
vt 0.572719 0.490141
vt 0.332264 0.490121
vt 0.328847 0.252458
vt 0.327919 0.500712
vt 0.332264 0.249666
vt 0.332264 0.007228
vt 0.316952 0.001477
vt 0.572719 0.249686
vt 0.328599 0.748012
vt 0.332264 0.990556
vt 0.252308 0.000958
vt 0.217344 0.749173
vt 0.219911 0.997964
vt 0.252308 0.000958
vt 0.250068 0.251778
vn 0.0000 0.0000 -1.0000
vn -1.0000 0.0000 0.0000
vn 0.0000 -1.0000 0.0000
vn 0.0000 1.0000 0.0000
vn 0.0000 0.0000 1.0000
vn 1.0000 0.0000 0.0000
vn 0.0000 0.9239 0.3827
vn 0.0000 0.3827 0.9239
vn 0.3827 0.9239 0.0000
vn 0.9239 0.3827 0.0000
vn -0.3827 0.9239 0.0000
vn -0.9239 0.3827 0.0000
vn 0.0000 0.9239 -0.3827
vn 0.0000 0.3827 -0.9239
usemtl white_wood
s off
f 12/1/1 20/2/1 13/3/1 10/4/1
f 9/5/2 23/6/2 20/2/2 12/1/2
f 3/7/3 1/8/3 2/9/3 4/10/3
f 14/11/4 19/12/4 22/13/4 17/14/4
f 11/15/5 16/16/5 23/6/5 9/5/5
f 3/17/1 8/18/1 5/19/1 1/20/1
f 1/21/6 5/22/6 7/23/6 2/24/6
f 4/25/2 6/26/2 8/18/2 3/17/2
f 2/24/5 7/23/5 6/26/5 4/25/5
f 7/23/4 5/22/4 25/27/4 27/28/4
f 6/26/4 7/23/4 27/28/4 26/29/4
f 12/1/3 10/4/3 30/30/3 32/31/3
f 9/5/3 12/1/3 32/31/3 29/32/3
f 17/14/7 22/13/7 24/33/7 18/34/7
f 18/35/8 24/36/8 23/6/8 16/16/8
f 14/11/9 17/14/9 18/34/9 15/37/9
f 15/38/10 18/35/10 16/16/10 13/39/10
f 22/13/11 19/12/11 21/40/11 24/33/11
f 24/36/12 21/41/12 20/2/12 23/6/12
f 19/12/13 14/11/13 15/37/13 21/40/13
f 21/41/14 15/42/14 13/3/14 20/2/14
f 10/43/6 13/39/6 16/16/6 11/15/6
f 28/44/1 32/31/1 30/30/1 25/45/1
f 25/27/6 30/46/6 31/47/6 27/28/6
f 26/29/2 29/32/2 32/31/2 28/44/2
f 27/28/5 31/47/5 29/32/5 26/29/5
f 11/15/3 9/5/3 29/32/3 31/47/3
f 10/43/3 11/15/3 31/47/3 30/46/3
f 8/18/4 6/26/4 26/29/4 28/44/4
f 5/19/4 8/18/4 28/44/4 25/45/4

