# Blender v3.0.0 OBJ File: 'quarto.blend'
# www.blender.org
mtllib white_piece.mtl
o wtsf_Cube.001
v 0.075000 0.000000 -0.075000
v 0.075000 0.000000 0.075000
v -0.075000 0.000000 -0.075000
v -0.075000 0.000000 0.075000
v 0.075000 0.150000 -0.075000
v -0.075000 0.150000 0.075000
v 0.075000 0.150000 0.075000
v -0.075000 0.150000 -0.075000
v 0.075000 0.130000 -0.075000
v 0.075000 0.130000 0.075000
v -0.075000 0.130000 -0.075000
v -0.075000 0.130000 0.075000
v 0.067500 0.149622 -0.067500
v -0.067500 0.149622 0.067500
v 0.067500 0.149622 0.067500
v -0.067500 0.149622 -0.067500
v 0.067500 0.129622 -0.067500
v 0.067500 0.129622 0.067500
v -0.067500 0.129622 -0.067500
v -0.067500 0.129622 0.067500
v 0.075000 0.282578 -0.075000
v 0.063385 0.300000 -0.063385
v 0.071598 0.294897 -0.071598
v 0.075000 0.282578 0.075000
v 0.063385 0.300000 0.063385
v 0.071598 0.294897 0.071598
v -0.063385 0.300000 -0.063385
v -0.075000 0.282578 -0.075000
v -0.071598 0.294897 -0.071598
v -0.063385 0.300000 0.063385
v -0.075000 0.282578 0.075000
v -0.071598 0.294897 0.071598
vt 0.246565 0.250127
vt 0.026980 0.250896
vt 0.025065 0.002487
vt 0.245202 0.001110
vt 0.246847 0.499116
vt 0.027043 0.498674
vt 0.747464 0.249717
vt 0.497748 0.249717
vt 0.497748 0.000000
vt 0.747464 0.000000
vt 0.512833 0.477612
vt 0.512822 0.264908
vt 0.725533 0.264847
vt 0.725543 0.477653
vt 0.246055 0.748665
vt 0.025545 0.746946
vt 0.247424 0.499116
vt 0.246701 0.748679
vt 0.280909 0.249962
vt 0.281194 0.499143
vt 0.280618 0.499140
vt 0.280323 0.249990
vt 0.245939 0.001031
vt 0.247152 0.250107
vt 0.280017 0.000740
vt 0.279269 0.000809
vt 0.497748 0.749112
vt 0.280718 0.748884
vt 0.497583 0.499020
vt 0.497036 0.249422
vt 0.497747 1.000000
vt 0.279928 0.999655
vt 0.496182 0.000000
vt 0.278852 0.999607
vt 0.244978 0.999338
vt 0.280073 0.748844
vt 0.243903 0.999235
vt 0.740618 0.249717
vt 0.740618 0.492793
vt 0.004053 0.746670
vt 0.005422 0.498638
vt 0.497748 0.492680
vt 0.000000 0.990715
vt 0.022084 0.996847
vt 0.497748 0.249830
vt 0.005577 0.251081
vt 0.003463 0.008439
vn 0.0000 0.0000 -1.0000
vn -1.0000 0.0000 0.0000
vn 0.0000 -1.0000 0.0000
vn 0.0000 1.0000 0.0000
vn 0.0000 0.0000 1.0000
vn 0.0000 -0.9987 0.0503
vn 0.0503 0.9987 0.0000
vn 0.0000 -0.9987 -0.0503
vn 0.0000 0.9987 0.0503
vn 1.0000 0.0000 0.0000
vn 0.0503 -0.9987 0.0000
vn -0.0503 0.9987 0.0000
vn 0.0000 0.9987 -0.0503
vn -0.0503 -0.9987 0.0000
vn 0.0000 0.8494 0.5277
vn 0.0000 0.2662 0.9639
vn 0.5277 0.8494 0.0000
vn 0.9639 0.2662 0.0000
vn -0.5277 0.8494 0.0000
vn -0.9639 0.2662 0.0000
vn 0.0000 0.8494 -0.5277
vn 0.0000 0.2662 -0.9639
usemtl white_wood
s off
f 8/1/1 28/2/1 21/3/1 5/4/1
f 6/5/2 31/6/2 28/2/2 8/1/2
f 3/7/3 1/8/3 2/9/3 4/10/3
f 22/11/4 27/12/4 30/13/4 25/14/4
f 7/15/5 24/16/5 31/6/5 6/5/5
f 7/15/6 6/5/6 14/17/6 15/18/6
f 11/19/7 12/20/7 20/21/7 19/22/7
f 8/1/8 5/4/8 13/23/8 16/24/8
f 9/25/9 11/19/9 19/22/9 17/26/9
f 2/27/5 10/28/5 12/20/5 4/29/5
f 4/29/2 12/20/2 11/19/2 3/30/2
f 1/31/10 9/32/10 10/28/10 2/27/10
f 3/30/1 11/19/1 9/25/1 1/33/1
f 19/22/1 16/24/1 13/23/1 17/26/1
f 17/34/10 13/35/10 15/18/10 18/36/10
f 20/21/2 14/17/2 16/24/2 19/22/2
f 18/36/5 15/18/5 14/17/5 20/21/5
f 5/37/11 7/15/11 15/18/11 13/35/11
f 10/28/12 9/32/12 17/34/12 18/36/12
f 12/20/13 10/28/13 18/36/13 20/21/13
f 6/5/14 8/1/14 16/24/14 14/17/14
f 25/14/15 30/13/15 32/38/15 26/39/15
f 26/40/16 32/41/16 31/6/16 24/16/16
f 22/11/17 25/14/17 26/39/17 23/42/17
f 23/43/18 26/40/18 24/16/18 21/44/18
f 30/13/19 27/12/19 29/45/19 32/38/19
f 32/41/20 29/46/20 28/2/20 31/6/20
f 27/12/21 22/11/21 23/42/21 29/45/21
f 29/46/22 23/47/22 21/3/22 28/2/22
f 5/37/10 21/44/10 24/16/10 7/15/10
